<svg width="97" height="56" viewBox="0 0 97 56" fill="none" xmlns="http://www.w3.org/2000/svg">
<path d="M85.6484 19.9758C112.148 46.4758 87.1484 48.1231 51.1486 54.476C30.6484 58.0937 18.1482 54.476 4.64834 34.9759C-6.87719 18.3275 5.09039 10.7798 18.1483 4.47603C32.6485 -2.52393 61.7398 -3.93285 85.6484 19.9758Z" fill="#C700D1"/>
<path d="M28.082 30.4336L27.6719 34.7695L19.4492 35.4141C19.4883 33.1419 19.5306 30.8828 19.5762 28.6367C19.6283 26.3906 19.6901 24.1315 19.7617 21.8594H24.8398C24.6901 23.2852 24.5469 24.7109 24.4102 26.1367C24.2734 27.556 24.1758 28.9883 24.1172 30.4336C24.4232 30.4466 24.7259 30.4531 25.0254 30.4531C25.3249 30.4531 25.6276 30.4531 25.9336 30.4531C26.2982 30.4531 26.6562 30.4499 27.0078 30.4434C27.3594 30.4368 27.7174 30.4336 28.082 30.4336ZM41.6113 28.5195C41.6113 29.112 41.543 29.6849 41.4062 30.2383C41.2695 30.7852 41.071 31.2995 40.8105 31.7812C40.5566 32.263 40.2441 32.7057 39.873 33.1094C39.5085 33.5065 39.0951 33.8483 38.6328 34.1348C38.1771 34.4212 37.679 34.6458 37.1387 34.8086C36.5983 34.9648 36.0254 35.043 35.4199 35.043C34.834 35.043 34.2741 34.9681 33.7402 34.8184C33.2129 34.6686 32.7181 34.4603 32.2559 34.1934C31.7936 33.9199 31.3737 33.5944 30.9961 33.2168C30.625 32.8327 30.306 32.4095 30.0391 31.9473C29.7786 31.4785 29.5736 30.9772 29.4238 30.4434C29.2806 29.9095 29.209 29.3529 29.209 28.7734C29.209 28.207 29.2773 27.6536 29.4141 27.1133C29.5508 26.5664 29.7461 26.0521 30 25.5703C30.2604 25.0885 30.5729 24.6458 30.9375 24.2422C31.3021 23.8385 31.709 23.4902 32.1582 23.1973C32.6139 22.9043 33.1055 22.6764 33.6328 22.5137C34.1602 22.3509 34.7168 22.2695 35.3027 22.2695C36.2467 22.2695 37.1061 22.416 37.8809 22.709C38.6621 23.002 39.3262 23.4219 39.873 23.9688C40.4264 24.5091 40.8529 25.1667 41.1523 25.9414C41.4583 26.7096 41.6113 27.569 41.6113 28.5195ZM37.2754 28.7734C37.2754 28.4935 37.2331 28.2233 37.1484 27.9629C37.0703 27.696 36.9531 27.4616 36.7969 27.2598C36.6406 27.0514 36.4453 26.8854 36.2109 26.7617C35.9831 26.6315 35.7194 26.5664 35.4199 26.5664C35.1139 26.5664 34.8405 26.6217 34.5996 26.7324C34.3587 26.8431 34.1504 26.9961 33.9746 27.1914C33.8053 27.3802 33.6751 27.6048 33.584 27.8652C33.4928 28.1191 33.4473 28.3893 33.4473 28.6758C33.4473 28.9492 33.4863 29.2227 33.5645 29.4961C33.6426 29.7695 33.7598 30.0169 33.916 30.2383C34.0723 30.4596 34.2643 30.6387 34.4922 30.7754C34.7266 30.9121 34.9967 30.9805 35.3027 30.9805C35.6087 30.9805 35.8822 30.9219 36.123 30.8047C36.3704 30.681 36.5788 30.5182 36.748 30.3164C36.9173 30.1081 37.0475 29.8704 37.1387 29.6035C37.2298 29.3366 37.2754 29.0599 37.2754 28.7734ZM55.1016 33.8125C54.7956 34.1966 54.418 34.5319 53.9688 34.8184C53.5195 35.1048 53.0378 35.3424 52.5234 35.5312C52.0091 35.7201 51.4818 35.8633 50.9414 35.9609C50.401 36.0521 49.8867 36.0977 49.3984 36.0977C48.4544 36.0977 47.5853 35.9382 46.791 35.6191C45.9967 35.3001 45.3099 34.8574 44.7305 34.291C44.1576 33.7181 43.7083 33.0378 43.3828 32.25C43.0573 31.4622 42.8945 30.6029 42.8945 29.6719C42.8945 28.9622 42.9759 28.2721 43.1387 27.6016C43.3014 26.931 43.5326 26.3027 43.832 25.7168C44.138 25.1309 44.5091 24.5938 44.9453 24.1055C45.3815 23.6172 45.8763 23.1973 46.4297 22.8457C46.9831 22.4941 47.5885 22.224 48.2461 22.0352C48.9102 21.8398 49.6133 21.7422 50.3555 21.7422C50.6354 21.7422 50.9349 21.7552 51.2539 21.7812C51.5729 21.8008 51.8887 21.8398 52.2012 21.8984C52.5202 21.9505 52.8294 22.0254 53.1289 22.123C53.4284 22.2207 53.7018 22.3411 53.9492 22.4844L53.6758 26.2148C53.3112 26.0781 52.9336 25.987 52.543 25.9414C52.1589 25.8893 51.7812 25.8633 51.4102 25.8633C50.8893 25.8633 50.401 25.9349 49.9453 26.0781C49.4961 26.2148 49.1022 26.4199 48.7637 26.6934C48.4316 26.9668 48.168 27.3086 47.9727 27.7188C47.7773 28.1289 47.6797 28.6042 47.6797 29.1445C47.6797 29.4831 47.7253 29.8118 47.8164 30.1309C47.9076 30.4434 48.0443 30.7233 48.2266 30.9707C48.4154 31.2116 48.6465 31.4069 48.9199 31.5566C49.1999 31.7064 49.5221 31.7812 49.8867 31.7812C50.1341 31.7812 50.388 31.7487 50.6484 31.6836C50.9154 31.6185 51.1432 31.5078 51.332 31.3516L51.3711 30.5898L49.0273 30.5508L49.1445 27.6211C50.1146 27.5885 51.0846 27.5625 52.0547 27.543C53.0247 27.5169 54.0013 27.4844 54.9844 27.4453L55.1016 33.8125ZM61.9512 22.25L61.2676 35.5508L57.1465 35.7656L56.7559 22.5234L61.9512 22.25ZM75.8711 31.0586C75.8711 31.7943 75.8613 32.5234 75.8418 33.2461C75.8288 33.9622 75.806 34.6849 75.7734 35.4141L70.1484 35.3164C70.3438 34.1641 70.513 33.015 70.6562 31.8691C70.7995 30.7168 70.8711 29.5547 70.8711 28.3828C70.8711 28.2982 70.8678 28.1615 70.8613 27.9727C70.8548 27.7839 70.8418 27.5723 70.8223 27.3379C70.8027 27.097 70.7734 26.8529 70.7344 26.6055C70.7018 26.3516 70.653 26.1204 70.5879 25.9121C70.5293 25.7038 70.4544 25.5345 70.3633 25.4043C70.2786 25.2676 70.1745 25.1992 70.0508 25.1992C69.8294 25.1992 69.6406 25.2643 69.4844 25.3945C69.3346 25.5247 69.2077 25.694 69.1035 25.9023C69.0059 26.1042 68.9277 26.332 68.8691 26.5859C68.8105 26.8398 68.765 27.0938 68.7324 27.3477C68.7064 27.6016 68.6868 27.8424 68.6738 28.0703C68.6673 28.2917 68.6641 28.474 68.6641 28.6172C68.6315 29.7695 68.6055 30.9154 68.5859 32.0547C68.5664 33.1875 68.5404 34.3333 68.5078 35.4922L63.5273 35.707C63.6576 33.4089 63.7812 31.1237 63.8984 28.8516C64.0221 26.5794 64.1198 24.2943 64.1914 21.9961L68.8008 21.7617L68.7617 23.3242C68.944 23.1029 69.1393 22.8945 69.3477 22.6992C69.5625 22.5039 69.7904 22.3379 70.0312 22.2012C70.2721 22.0579 70.526 21.9473 70.793 21.8691C71.0664 21.7845 71.3529 21.7422 71.6523 21.7422C72.2057 21.7422 72.6908 21.8333 73.1074 22.0156C73.5241 22.1979 73.8822 22.4453 74.1816 22.7578C74.4811 23.0703 74.7318 23.4414 74.9336 23.8711C75.1354 24.2943 75.2982 24.7467 75.4219 25.2285C75.5456 25.7103 75.64 26.2148 75.7051 26.7422C75.7702 27.263 75.8125 27.7773 75.832 28.2852C75.8581 28.793 75.8711 29.2845 75.8711 29.7598C75.8711 30.235 75.8711 30.668 75.8711 31.0586Z" fill="white" fill-opacity="0.9"/>
</svg>
