<svg width="97" height="56" viewBox="0 0 97 56" fill="none" xmlns="http://www.w3.org/2000/svg">
<path d="M85.6484 19.9758C112.148 46.4758 87.1484 48.1231 51.1486 54.476C30.6484 58.0937 18.1482 54.476 4.64834 34.9759C-6.87719 18.3275 5.09039 10.7798 18.1483 4.47603C32.6485 -2.52393 61.7398 -3.93285 85.6484 19.9758Z" fill="#E4028C"/>
<path d="M19.082 30.4336L18.6719 34.7695L10.4492 35.4141C10.4883 33.1419 10.5306 30.8828 10.5762 28.6367C10.6283 26.3906 10.6901 24.1315 10.7617 21.8594H15.8398C15.6901 23.2852 15.5469 24.7109 15.4102 26.1367C15.2734 27.556 15.1758 28.9883 15.1172 30.4336C15.4232 30.4466 15.7259 30.4531 16.0254 30.4531C16.3249 30.4531 16.6276 30.4531 16.9336 30.4531C17.2982 30.4531 17.6562 30.4499 18.0078 30.4434C18.3594 30.4368 18.7174 30.4336 19.082 30.4336ZM32.6113 28.5195C32.6113 29.112 32.543 29.6849 32.4062 30.2383C32.2695 30.7852 32.071 31.2995 31.8105 31.7812C31.5566 32.263 31.2441 32.7057 30.873 33.1094C30.5085 33.5065 30.0951 33.8483 29.6328 34.1348C29.1771 34.4212 28.679 34.6458 28.1387 34.8086C27.5983 34.9648 27.0254 35.043 26.4199 35.043C25.834 35.043 25.2741 34.9681 24.7402 34.8184C24.2129 34.6686 23.7181 34.4603 23.2559 34.1934C22.7936 33.9199 22.3737 33.5944 21.9961 33.2168C21.625 32.8327 21.306 32.4095 21.0391 31.9473C20.7786 31.4785 20.5736 30.9772 20.4238 30.4434C20.2806 29.9095 20.209 29.3529 20.209 28.7734C20.209 28.207 20.2773 27.6536 20.4141 27.1133C20.5508 26.5664 20.7461 26.0521 21 25.5703C21.2604 25.0885 21.5729 24.6458 21.9375 24.2422C22.3021 23.8385 22.709 23.4902 23.1582 23.1973C23.6139 22.9043 24.1055 22.6764 24.6328 22.5137C25.1602 22.3509 25.7168 22.2695 26.3027 22.2695C27.2467 22.2695 28.1061 22.416 28.8809 22.709C29.6621 23.002 30.3262 23.4219 30.873 23.9688C31.4264 24.5091 31.8529 25.1667 32.1523 25.9414C32.4583 26.7096 32.6113 27.569 32.6113 28.5195ZM28.2754 28.7734C28.2754 28.4935 28.2331 28.2233 28.1484 27.9629C28.0703 27.696 27.9531 27.4616 27.7969 27.2598C27.6406 27.0514 27.4453 26.8854 27.2109 26.7617C26.9831 26.6315 26.7194 26.5664 26.4199 26.5664C26.1139 26.5664 25.8405 26.6217 25.5996 26.7324C25.3587 26.8431 25.1504 26.9961 24.9746 27.1914C24.8053 27.3802 24.6751 27.6048 24.584 27.8652C24.4928 28.1191 24.4473 28.3893 24.4473 28.6758C24.4473 28.9492 24.4863 29.2227 24.5645 29.4961C24.6426 29.7695 24.7598 30.0169 24.916 30.2383C25.0723 30.4596 25.2643 30.6387 25.4922 30.7754C25.7266 30.9121 25.9967 30.9805 26.3027 30.9805C26.6087 30.9805 26.8822 30.9219 27.123 30.8047C27.3704 30.681 27.5788 30.5182 27.748 30.3164C27.9173 30.1081 28.0475 29.8704 28.1387 29.6035C28.2298 29.3366 28.2754 29.0599 28.2754 28.7734ZM46.1016 33.8125C45.7956 34.1966 45.418 34.5319 44.9688 34.8184C44.5195 35.1048 44.0378 35.3424 43.5234 35.5312C43.0091 35.7201 42.4818 35.8633 41.9414 35.9609C41.401 36.0521 40.8867 36.0977 40.3984 36.0977C39.4544 36.0977 38.5853 35.9382 37.791 35.6191C36.9967 35.3001 36.3099 34.8574 35.7305 34.291C35.1576 33.7181 34.7083 33.0378 34.3828 32.25C34.0573 31.4622 33.8945 30.6029 33.8945 29.6719C33.8945 28.9622 33.9759 28.2721 34.1387 27.6016C34.3014 26.931 34.5326 26.3027 34.832 25.7168C35.138 25.1309 35.5091 24.5938 35.9453 24.1055C36.3815 23.6172 36.8763 23.1973 37.4297 22.8457C37.9831 22.4941 38.5885 22.224 39.2461 22.0352C39.9102 21.8398 40.6133 21.7422 41.3555 21.7422C41.6354 21.7422 41.9349 21.7552 42.2539 21.7812C42.5729 21.8008 42.8887 21.8398 43.2012 21.8984C43.5202 21.9505 43.8294 22.0254 44.1289 22.123C44.4284 22.2207 44.7018 22.3411 44.9492 22.4844L44.6758 26.2148C44.3112 26.0781 43.9336 25.987 43.543 25.9414C43.1589 25.8893 42.7812 25.8633 42.4102 25.8633C41.8893 25.8633 41.401 25.9349 40.9453 26.0781C40.4961 26.2148 40.1022 26.4199 39.7637 26.6934C39.4316 26.9668 39.168 27.3086 38.9727 27.7188C38.7773 28.1289 38.6797 28.6042 38.6797 29.1445C38.6797 29.4831 38.7253 29.8118 38.8164 30.1309C38.9076 30.4434 39.0443 30.7233 39.2266 30.9707C39.4154 31.2116 39.6465 31.4069 39.9199 31.5566C40.1999 31.7064 40.5221 31.7812 40.8867 31.7812C41.1341 31.7812 41.388 31.7487 41.6484 31.6836C41.9154 31.6185 42.1432 31.5078 42.332 31.3516L42.3711 30.5898L40.0273 30.5508L40.1445 27.6211C41.1146 27.5885 42.0846 27.5625 43.0547 27.543C44.0247 27.5169 45.0013 27.4844 45.9844 27.4453L46.1016 33.8125ZM59.9238 28.5195C59.9238 29.112 59.8555 29.6849 59.7188 30.2383C59.582 30.7852 59.3835 31.2995 59.123 31.7812C58.8691 32.263 58.5566 32.7057 58.1855 33.1094C57.821 33.5065 57.4076 33.8483 56.9453 34.1348C56.4896 34.4212 55.9915 34.6458 55.4512 34.8086C54.9108 34.9648 54.3379 35.043 53.7324 35.043C53.1465 35.043 52.5866 34.9681 52.0527 34.8184C51.5254 34.6686 51.0306 34.4603 50.5684 34.1934C50.1061 33.9199 49.6862 33.5944 49.3086 33.2168C48.9375 32.8327 48.6185 32.4095 48.3516 31.9473C48.0911 31.4785 47.8861 30.9772 47.7363 30.4434C47.5931 29.9095 47.5215 29.3529 47.5215 28.7734C47.5215 28.207 47.5898 27.6536 47.7266 27.1133C47.8633 26.5664 48.0586 26.0521 48.3125 25.5703C48.5729 25.0885 48.8854 24.6458 49.25 24.2422C49.6146 23.8385 50.0215 23.4902 50.4707 23.1973C50.9264 22.9043 51.418 22.6764 51.9453 22.5137C52.4727 22.3509 53.0293 22.2695 53.6152 22.2695C54.5592 22.2695 55.4186 22.416 56.1934 22.709C56.9746 23.002 57.6387 23.4219 58.1855 23.9688C58.7389 24.5091 59.1654 25.1667 59.4648 25.9414C59.7708 26.7096 59.9238 27.569 59.9238 28.5195ZM55.5879 28.7734C55.5879 28.4935 55.5456 28.2233 55.4609 27.9629C55.3828 27.696 55.2656 27.4616 55.1094 27.2598C54.9531 27.0514 54.7578 26.8854 54.5234 26.7617C54.2956 26.6315 54.0319 26.5664 53.7324 26.5664C53.4264 26.5664 53.153 26.6217 52.9121 26.7324C52.6712 26.8431 52.4629 26.9961 52.2871 27.1914C52.1178 27.3802 51.9876 27.6048 51.8965 27.8652C51.8053 28.1191 51.7598 28.3893 51.7598 28.6758C51.7598 28.9492 51.7988 29.2227 51.877 29.4961C51.9551 29.7695 52.0723 30.0169 52.2285 30.2383C52.3848 30.4596 52.5768 30.6387 52.8047 30.7754C53.0391 30.9121 53.3092 30.9805 53.6152 30.9805C53.9212 30.9805 54.1947 30.9219 54.4355 30.8047C54.6829 30.681 54.8913 30.5182 55.0605 30.3164C55.2298 30.1081 55.36 29.8704 55.4512 29.6035C55.5423 29.3366 55.5879 29.0599 55.5879 28.7734ZM73.248 22.25C72.9551 24.5417 72.7044 26.8236 72.4961 29.0957C72.2878 31.3613 72.0892 33.6432 71.9004 35.9414L67.8965 36.2344L68.0723 34.7305C67.9421 34.8802 67.7891 35.0104 67.6133 35.1211C67.444 35.2318 67.2617 35.3229 67.0664 35.3945C66.8711 35.4596 66.6693 35.5085 66.4609 35.541C66.2526 35.5671 66.054 35.5768 65.8652 35.5703C65.4225 35.5638 65.0059 35.4792 64.6152 35.3164C64.2246 35.1471 63.8665 34.9258 63.541 34.6523C63.2155 34.3724 62.9225 34.0501 62.6621 33.6855C62.4017 33.3145 62.1803 32.9271 61.998 32.5234C61.8223 32.1133 61.6855 31.6966 61.5879 31.2734C61.4967 30.8503 61.4512 30.4401 61.4512 30.043C61.4512 29.457 61.4609 28.8516 61.4805 28.2266C61.5065 27.5951 61.5488 26.9635 61.6074 26.332C61.666 25.7005 61.7409 25.0755 61.832 24.457C61.9297 23.8385 62.0501 23.2461 62.1934 22.6797C62.9876 22.7188 63.7852 22.7546 64.5859 22.7871C65.3867 22.8197 66.1842 22.8294 66.9785 22.8164C66.8288 23.3828 66.679 23.9525 66.5293 24.5254C66.3861 25.0918 66.2559 25.6647 66.1387 26.2441C66.0215 26.8171 65.9271 27.3932 65.8555 27.9727C65.7839 28.5521 65.748 29.138 65.748 29.7305C65.748 29.8672 65.7546 30.0625 65.7676 30.3164C65.7806 30.5703 65.8132 30.821 65.8652 31.0684C65.9238 31.3158 66.0085 31.5339 66.1191 31.7227C66.2363 31.9049 66.3991 31.9961 66.6074 31.9961C66.8548 31.9961 67.0762 31.8919 67.2715 31.6836C67.4668 31.4688 67.6393 31.1823 67.7891 30.8242C67.9388 30.4661 68.0658 30.0527 68.1699 29.584C68.2806 29.1152 68.3717 28.627 68.4434 28.1191C68.5215 27.6048 68.5833 27.0872 68.6289 26.5664C68.6745 26.0456 68.707 25.5573 68.7266 25.1016C68.7526 24.6393 68.7689 24.2259 68.7754 23.8613C68.7884 23.4967 68.7949 23.2135 68.7949 23.0117C68.7949 22.8815 68.7917 22.7546 68.7852 22.6309C68.7786 22.5072 68.7689 22.3802 68.7559 22.25C69.179 22.263 69.599 22.2728 70.0156 22.2793C70.4323 22.2858 70.8522 22.2891 71.2754 22.2891C71.6009 22.2891 71.9264 22.2891 72.252 22.2891C72.584 22.2826 72.916 22.2695 73.248 22.25ZM85.1758 22.2305L85.0781 26.3711L82.168 26.4883L81.8164 35.5508L77.6953 35.7656L77.3242 26.7031L74.4141 26.8594L74.5312 22.25L85.1758 22.2305Z" fill="white" fill-opacity="0.9"/>
</svg>
